<?xml version="1.0" encoding="UTF-8"?>
<svg id="Layer_1" data-name="Layer 1" xmlns="http://www.w3.org/2000/svg" viewBox="0 0 47.46 54">
  <defs>
    <style>
      .cls-1 {
        fill: #ca3439;
      }

      .cls-1, .cls-2, .cls-3, .cls-4 {
        stroke-width: 0px;
      }

      .cls-2 {
        fill: #388941;
      }

      .cls-3 {
        fill: #3e9d46;
      }

      .cls-4 {
        fill: #c73333;
      }
    </style>
  </defs>
  <path class="cls-3" d="M10.25,11.63c-.15-.13-.3-.26-.45-.39-1.32-1.14-2.34-2.49-2.73-4.23C6.35,3.85,8.43.66,11.58.2c1.58-.23,3.02.22,4.37,1.02,1.76,1.05,3.11,2.53,4.28,4.17.9,1.25,1.71,2.56,2.54,3.86.14.22.26.23.5.18.29-.06.62-.08.9,0,.3.08.4,0,.53-.24,1.29-2.3,2.72-4.5,4.6-6.37,1.19-1.18,2.52-2.18,4.2-2.52,2.16-.45,4.09.03,5.57,1.72,1.5,1.71,1.74,3.71,1.01,5.82-.5,1.46-1.48,2.59-2.64,3.58-.08.06-.15.13-.3.27.23.03.37.06.51.06,2.82,0,5.65,0,8.47,0,.92,0,1.32.4,1.32,1.32,0,2.72,0,5.44,0,8.16,0,.77-.44,1.22-1.23,1.23q-.88.02-.88.89c-.01,9.1-.03,18.21-.04,27.31,0,.48,0,.96.01,1.44.05,1.05-.66,1.82-1.72,1.82-2.37,0-4.74,0-7.11,0-2.77,0-5.54,0-8.31,0-2.65,0-5.31.04-7.96.04-5.45,0-10.9-.03-16.35-.04-.91,0-1.8-.59-1.8-1.79.02-9.06,0-18.13,0-27.19,0-.69-.01-1.37,0-2.06,0-.3-.09-.41-.39-.42C.2,22.42,0,22.21,0,20.72c0-2.56,0-5.13,0-7.69,0-.82.46-1.28,1.27-1.28,2.8,0,5.59,0,8.39,0,.18,0,.35,0,.53,0,.02-.04.03-.09.05-.13ZM28.85,10.18c.12,0,.22.01.32,0,.86-.16,1.74-.27,2.59-.49,1.3-.33,2.53-.85,3.51-1.81.76-.74,1.11-1.64.95-2.7-.12-.86-.67-1.24-1.51-1.01-.98.27-1.74.9-2.48,1.55-1.38,1.23-2.34,2.79-3.35,4.3-.02.04-.02.09-.03.16ZM18.55,10.14c-.1-.22-.13-.33-.19-.43-.91-1.47-1.91-2.87-3.2-4.03-.75-.68-1.56-1.28-2.57-1.54-.6-.16-1.04.05-1.31.61-.22.46-.27.94-.16,1.44.24,1.03.95,1.69,1.78,2.26,1.39.94,2.96,1.32,4.59,1.56.31.05.63.08,1.05.13Z"/>
  <path class="cls-4" d="M34.35,0c.37,0,.75,0,1.12,0,.15.05.29.13.44.14,1.11.12,2.07.6,2.85,1.34,1.65,1.57,2.13,3.5,1.66,5.65-.4,1.82-1.58,3.19-3.02,4.35-.12.1-.34.13-.51.14-.37.02-.75,0-1.23,0,.97,1.12,1.84,2.14,2.71,3.15.6.7,1.19,1.41,1.8,2.1.44.5.91.98,1.37,1.46v.47c-.22.07-.43.2-.65.2-1.15.02-2.29.02-3.44,0-.32,0-.51.11-.57.41-.07.38-.08.77-.18,1.14-.14.52-.03,1.14-.6,1.51h-.64c-.14-.13-.32-.24-.43-.39-.67-.93-1.33-1.87-2-2.81-.7-.99-1.39-1.98-2.1-2.95-.72-1-1.46-1.98-2.18-2.98-.23-.32-.48-.48-.93-.47-2.49.03-4.98.01-7.48.01-.15,0-.3.01-.44,0-.68-.09-.65-.08-1.04.48-.85,1.23-1.73,2.45-2.61,3.67-.49.68-1.01,1.33-1.49,2.02-.7,1-1.39,2.01-2.08,3.02-.09.14-.19.27-.28.41h-.24c-.72-.03-.98-.43-1.03-1.09-.04-.57-.19-1.13-.3-1.69-.02-.08-.1-.18-.18-.2-.15-.05-.31-.06-.47-.06-1.11,0-2.21,0-3.32,0-.51,0-.73-.33-.49-.72.15-.24.32-.46.51-.68.58-.68,1.17-1.36,1.75-2.04.71-.83,1.42-1.66,2.13-2.49.37-.44.73-.88,1.1-1.33,0-.04-.01-.09-.02-.13-.28,0-.56-.04-.84,0-.84.13-1.5-.15-2.01-.8-.09-.11-.2-.21-.3-.31-1.03-1.07-1.77-2.29-2.02-3.75-.19-1.08-.08-2.13.3-3.19.55-1.54,1.64-2.53,3.13-3.15C10.6.25,11.13.15,11.63,0,12.03,0,12.43,0,12.83,0c.16.05.33.12.49.14,1.62.26,2.95,1.07,4.17,2.07,1.12.92,2.09,1.99,2.92,3.16.89,1.26,1.71,2.55,2.56,3.83.25.38.48.76.78,1.23.34-.59.6-1.1.91-1.59.63-.99,1.28-1.96,1.91-2.94.79-1.24,1.73-2.35,2.82-3.35,1.01-.94,2.13-1.72,3.46-2.16C33.35.24,33.86.13,34.35,0ZM18.67,10.23c-.07-.16-.09-.2-.11-.24-.84-1.3-1.72-2.58-2.81-3.7-.85-.87-1.8-1.61-2.96-2.06-1.06-.42-1.77.03-1.81,1.14-.05,1.36.7,2.27,1.8,2.99,1.33.87,2.81,1.32,4.36,1.61.48.09.96.17,1.53.27ZM28.75,10.1s.05.08.08.12c.1,0,.2.02.29,0,.62-.13,1.25-.25,1.86-.39,1.33-.31,2.58-.81,3.69-1.6.96-.68,1.64-1.54,1.55-2.76-.09-1.11-.6-1.66-1.66-1.26-.49.19-1,.42-1.38.76-.89.8-1.75,1.63-2.52,2.52-.7.82-1.28,1.74-1.91,2.61Z"/>
  <rect class="cls-2" x="2.01" y="22.61" width="43.51" height="1.63"/>
  <path class="cls-1" d="M22.45,11.03h2.62c2.06,0,3.74,1.68,3.74,3.74v39.23h-10.1V14.77c0-2.06,1.68-3.74,3.74-3.74Z"/>
  <rect class="cls-1" x="18.71" y="14.06" width="10.1" height="43.51" transform="translate(59.58 12.06) rotate(90)"/>
</svg>