<?xml version="1.0" encoding="UTF-8"?>
<svg id="Layer_1" data-name="Layer 1" xmlns="http://www.w3.org/2000/svg" viewBox="0 0 96 96">
  <defs>
    <style>
      .cls-1 {
        stroke-linecap: square;
      }

      .cls-1, .cls-2, .cls-3 {
        fill: none;
        stroke: #3d3d3d;
        stroke-miterlimit: 10;
      }

      .cls-3 {
        stroke-linecap: round;
      }
    </style>
  </defs>
  <g>
    <path class="cls-2" d="M6.17,89.83c-2.04,2.04-.69,5.65,2.2,5.67.02,0,.04,0,.07,0h79.13s.04,0,.07,0c2.89-.02,4.24-3.63,2.2-5.67l-39.45-39.45c-1.31-1.31-3.43-1.31-4.74,0L6.17,89.83Z"/>
    <path class="cls-2" d="M6.17,6.17c-2.04-2.04-5.65-.69-5.67,2.2,0,.02,0,.04,0,.07v79.13s0,.04,0,.07c.02,2.89,3.63,4.24,5.67,2.2l39.45-39.45c1.31-1.31,1.31-3.43,0-4.74L6.17,6.17Z"/>
    <path class="cls-2" d="M89.83,89.83c2.04,2.04,5.65.69,5.67-2.2,0-.02,0-.04,0-.07V8.44s0-.04,0-.07c-.02-2.89-3.63-4.24-5.67-2.2l-39.45,39.45c-1.31,1.31-1.31,3.43,0,4.74l39.45,39.45Z"/>
    <path class="cls-2" d="M8.44.5s-.04,0-.07,0c-2.89.02-4.24,3.63-2.2,5.67l39.45,39.45c1.31,1.31,3.43,1.31,4.74,0L89.83,6.17c2.04-2.04.69-5.65-2.2-5.67-.02,0-.04,0-.07,0H8.44Z"/>
  </g>
  <g>
    <path class="cls-2" d="M16.56,79.44c-1.53,1.53-.52,4.25,1.65,4.26.02,0,.03,0,.05,0h59.47s.03,0,.05,0c2.17-.02,3.18-2.73,1.65-4.26l-29.65-29.65c-.98-.98-2.58-.98-3.56,0l-29.65,29.65Z"/>
    <path class="cls-2" d="M16.56,16.56c-1.53-1.53-4.25-.52-4.26,1.65,0,.02,0,.03,0,.05v59.47s0,.03,0,.05c.02,2.17,2.73,3.18,4.26,1.65l29.65-29.65c.98-.98.98-2.58,0-3.56l-29.65-29.65Z"/>
    <path class="cls-2" d="M79.44,79.44c1.53,1.53,4.25.52,4.26-1.65,0-.02,0-.03,0-.05V18.26s0-.03,0-.05c-.02-2.17-2.73-3.18-4.26-1.65l-29.65,29.65c-.98.98-.98,2.58,0,3.56l29.65,29.65Z"/>
    <path class="cls-2" d="M18.26,12.3s-.03,0-.05,0c-2.17.02-3.18,2.73-1.65,4.26l29.65,29.65c.98.98,2.58.98,3.56,0l29.65-29.65c1.53-1.53.52-4.25-1.65-4.26-.02,0-.03,0-.05,0H18.26Z"/>
  </g>
  <g>
    <path class="cls-2" d="M69.16,40.17v-6.16c-.01-2.67-3.24-3.99-5.12-2.11l-1.57,1.57"/>
    <path class="cls-1" d="M62.47,33.47l1.53-1.53c1.9-1.9.56-5.15-2.13-5.16h0s-6.1,0-6.1,0"/>
  </g>
  <g>
    <path class="cls-2" d="M55.77,69.11h6.16c2.67-.01,3.99-3.24,2.11-5.12l-1.57-1.57"/>
    <path class="cls-1" d="M62.47,62.41l1.53,1.53c1.9,1.9,5.15.56,5.16-2.13h0v-6.1"/>
  </g>
  <g>
    <path class="cls-2" d="M26.72,55.77v6.16c.01,2.67,3.24,3.99,5.12,2.11l1.57-1.57"/>
    <path class="cls-1" d="M33.42,62.47l-1.53,1.53c-1.9,1.9-.56,5.15,2.13,5.16h0s6.1,0,6.1,0"/>
  </g>
  <g>
    <path class="cls-2" d="M40.11,26.83h-6.16c-2.67.01-3.99,3.24-2.11,5.12l1.57,1.57"/>
    <path class="cls-1" d="M33.42,33.53l-1.53-1.53c-1.9-1.9-5.15-.56-5.16,2.13h0v6.1"/>
  </g>
  <g>
    <g>
      <path class="cls-3" d="M54.22,45.71v-1.81c0-.78-.95-1.17-1.5-.62l-.46.46"/>
      <path class="cls-3" d="M52.26,43.75l.45-.45c.56-.56.16-1.51-.62-1.51h0s-1.79,0-1.79,0"/>
    </g>
    <g>
      <path class="cls-3" d="M50.29,54.19h1.81c.78,0,1.17-.95.62-1.5l-.46-.46"/>
      <path class="cls-3" d="M52.26,52.23l.45.45c.56.56,1.51.16,1.51-.62h0v-1.79"/>
    </g>
    <g>
      <path class="cls-3" d="M41.78,50.29v1.81c0,.78.95,1.17,1.5.62l.46-.46"/>
      <path class="cls-3" d="M43.74,52.25l-.45.45c-.56.56-.16,1.51.62,1.51h0s1.79,0,1.79,0"/>
    </g>
    <g>
      <path class="cls-3" d="M45.71,41.81h-1.81c-.78,0-1.17.95-.62,1.5l.46.46"/>
      <path class="cls-3" d="M43.74,43.77l-.45-.45c-.56-.56-1.51-.16-1.51.62h0v1.79"/>
    </g>
  </g>
</svg>