<?xml version="1.0" encoding="UTF-8"?>
<svg id="Layer_1" data-name="Layer 1" xmlns="http://www.w3.org/2000/svg" viewBox="0 0 46.92 53.39">
  <defs>
    <style>
      .cls-1 {
        fill: #ca3439;
      }

      .cls-1, .cls-2, .cls-3 {
        stroke-width: 0px;
      }

      .cls-2 {
        fill: #3e9d46;
      }

      .cls-3 {
        fill: #ab2a29;
      }
    </style>
  </defs>
  <path class="cls-1" d="M10.13,11.5c-.15-.13-.3-.26-.45-.39-1.31-1.13-2.32-2.46-2.7-4.18C6.28,3.8,8.33.65,11.45.2c1.56-.23,2.99.22,4.33,1.01,1.74,1.04,3.07,2.5,4.23,4.12.89,1.24,1.69,2.53,2.51,3.82.14.22.26.23.5.18.29-.06.62-.08.89,0,.3.08.39,0,.53-.24,1.28-2.27,2.69-4.45,4.55-6.3,1.18-1.17,2.49-2.15,4.16-2.5,2.13-.44,4.04.03,5.51,1.7,1.48,1.69,1.72,3.66,1,5.75-.5,1.44-1.47,2.56-2.61,3.54-.07.06-.15.13-.3.27.23.03.37.06.5.06,2.79,0,5.58,0,8.37,0,.91,0,1.31.4,1.31,1.31,0,2.69,0,5.38,0,8.07,0,.76-.44,1.2-1.21,1.22q-.87.02-.87.88c-.01,9-.03,18-.04,27,0,.47,0,.95.01,1.42.05,1.04-.65,1.8-1.7,1.8-2.34,0-4.69,0-7.03,0-2.74,0-5.48,0-8.22,0-2.62,0-5.25.04-7.87.04-5.39,0-10.78-.03-16.17-.04-.9,0-1.78-.58-1.77-1.77.02-8.96,0-17.92,0-26.89,0-.68-.01-1.36,0-2.04,0-.29-.08-.41-.39-.41C.19,22.17,0,21.96,0,20.49c0-2.53,0-5.07,0-7.6,0-.81.45-1.26,1.26-1.26,2.77,0,5.53,0,8.3,0,.17,0,.35,0,.52,0,.02-.04.03-.09.05-.13ZM28.52,10.07c.12,0,.22.01.32,0,.85-.15,1.72-.27,2.56-.48,1.29-.33,2.5-.84,3.47-1.79.76-.73,1.09-1.62.94-2.67-.12-.85-.67-1.23-1.49-1-.97.27-1.72.89-2.45,1.53-1.37,1.21-2.31,2.76-3.32,4.25-.02.04-.02.09-.03.16ZM18.34,10.02c-.09-.22-.13-.33-.18-.42-.9-1.45-1.88-2.84-3.16-3.99-.74-.67-1.55-1.27-2.54-1.52-.6-.15-1.02.05-1.29.61-.22.45-.27.93-.15,1.42.23,1.02.94,1.68,1.76,2.23,1.37.93,2.93,1.31,4.53,1.55.31.05.62.08,1.04.13Z"/>
  <path class="cls-2" d="M33.97,0c.37,0,.74,0,1.11,0,.15.05.29.12.44.14,1.1.12,2.04.59,2.82,1.32,1.63,1.55,2.11,3.46,1.64,5.58-.4,1.8-1.56,3.15-2.98,4.3-.12.1-.33.13-.51.13-.37.02-.74,0-1.21,0,.96,1.11,1.82,2.11,2.68,3.12.59.69,1.18,1.39,1.78,2.07.44.49.9.97,1.35,1.45v.46c-.21.07-.43.2-.64.2-1.13.02-2.27.02-3.4,0-.32,0-.51.11-.56.41-.07.37-.08.76-.18,1.12-.14.51-.03,1.13-.59,1.49h-.63c-.14-.13-.31-.23-.42-.38-.67-.92-1.32-1.85-1.98-2.78-.69-.97-1.37-1.95-2.07-2.92-.71-.99-1.44-1.96-2.15-2.94-.23-.31-.48-.47-.91-.47-2.46.03-4.93.01-7.39.01-.14,0-.29.01-.43,0-.67-.09-.64-.08-1.03.48-.84,1.22-1.71,2.42-2.58,3.63-.48.67-1,1.32-1.47,1.99-.7.99-1.37,1.99-2.05,2.98-.09.13-.19.27-.28.4h-.24c-.71-.03-.97-.42-1.02-1.08-.04-.56-.19-1.12-.3-1.68-.02-.08-.1-.18-.18-.2-.15-.05-.31-.06-.46-.06-1.09,0-2.19,0-3.28,0-.5,0-.73-.33-.49-.71.15-.24.32-.46.5-.67.57-.68,1.15-1.35,1.73-2.02.7-.82,1.41-1.64,2.1-2.46.37-.43.72-.87,1.08-1.31,0-.04-.01-.08-.02-.13-.28,0-.56-.03-.83,0-.83.13-1.48-.15-1.99-.79-.09-.11-.2-.21-.3-.31-1.02-1.06-1.75-2.26-2-3.7-.19-1.07-.08-2.11.29-3.15.54-1.52,1.62-2.5,3.1-3.11C10.48.24,11,.14,11.5,0,11.9,0,12.29,0,12.69,0c.16.05.32.12.49.14,1.6.25,2.91,1.06,4.12,2.05,1.11.91,2.07,1.97,2.88,3.13.88,1.24,1.7,2.52,2.53,3.79.25.37.48.75.77,1.21.33-.58.6-1.09.9-1.57.62-.98,1.27-1.93,1.89-2.91.78-1.22,1.72-2.32,2.78-3.32,1-.92,2.1-1.7,3.42-2.13C32.97.23,33.47.13,33.97,0ZM18.45,10.12c-.07-.15-.08-.2-.11-.24-.83-1.28-1.7-2.55-2.78-3.66-.84-.86-1.78-1.59-2.92-2.04-1.05-.41-1.75.03-1.79,1.13-.05,1.35.69,2.25,1.78,2.95,1.31.86,2.78,1.3,4.31,1.59.47.09.95.16,1.52.26ZM28.42,9.98s.05.08.08.12c.1,0,.2.02.29,0,.62-.12,1.23-.25,1.84-.39,1.32-.31,2.55-.81,3.65-1.59.95-.68,1.63-1.53,1.53-2.73-.09-1.09-.6-1.64-1.64-1.24-.48.19-.99.42-1.36.75-.88.79-1.73,1.61-2.49,2.49-.7.81-1.26,1.72-1.89,2.58Z"/>
  <rect class="cls-3" x="1.98" y="22.35" width="43.02" height="1.61"/>
  <path class="cls-2" d="M21.51,10.91h3.96c1.66,0,3.01,1.35,3.01,3.01v39.47h-9.99V13.92c0-1.66,1.35-3.01,3.01-3.01Z"/>
  <rect class="cls-2" x="18.5" y="13.9" width="9.99" height="43.02" transform="translate(58.91 11.92) rotate(90)"/>
</svg>